<?xml version="1.0" standalone="no"?><!DOCTYPE svg PUBLIC "-//W3C//DTD SVG 1.1//EN" "http://www.w3.org/Graphics/SVG/1.1/DTD/svg11.dtd"><svg t="1765360441801" class="icon" viewBox="0 0 1024 1024" version="1.1" xmlns="http://www.w3.org/2000/svg" p-id="5617" xmlns:xlink="http://www.w3.org/1999/xlink" width="200" height="200"><path d="M936.96 978.944h-9.216v-23.552c0-6.144-5.12-10.24-10.24-10.24H100.352c-6.144 0-10.24 5.12-10.24 10.24v23.552h-10.24c-6.144 0-10.24 4.096-10.24 10.24s4.096 10.24 10.24 10.24h856.064c6.144 0 10.24-4.096 10.24-10.24s-4.096-10.24-9.216-10.24zM36.864 978.944H20.48c-6.144 0-10.24 4.096-10.24 10.24s4.096 10.24 10.24 10.24h16.384c6.144 0 10.24-4.096 10.24-10.24s-4.096-10.24-10.24-10.24zM1003.52 978.944h-26.624c-6.144 0-10.24 4.096-10.24 10.24s4.096 10.24 10.24 10.24H1003.52c6.144 0 10.24-4.096 10.24-10.24s-5.12-10.24-10.24-10.24zM978.944 320.512H683.008c-47.104 21.504-106.496 36.864-180.224 37.888H501.76c-8.192 0-162.816-3.072-243.712-37.888H36.864v61.44h942.08v-61.44zM799.744 733.184v36.864c0 6.144 4.096 10.24 10.24 10.24s10.24-4.096 10.24-10.24v-36.864c0-6.144-4.096-10.24-10.24-10.24s-10.24 5.12-10.24 10.24z" p-id="5618" fill="#d4237a"></path><path d="M904.192 923.648V402.432H111.616v521.216h545.792V578.56c0-5.12 4.096-9.216 9.216-9.216h177.152c5.12 0 9.216 4.096 9.216 9.216v345.088h51.2zM468.992 579.584H522.24v36.864c0 14.336-12.288 26.624-26.624 26.624s-26.624-12.288-26.624-26.624v-36.864z m-73.728 0h53.248v36.864c0 14.336-12.288 26.624-26.624 26.624-14.336 0-26.624-12.288-26.624-26.624v-36.864z m-73.728 0h53.248v36.864c0 14.336-12.288 26.624-26.624 26.624s-26.624-12.288-26.624-26.624v-36.864z m-74.752 0h53.248v36.864c0 14.336-12.288 26.624-26.624 26.624-14.336 0-26.624-12.288-26.624-26.624v-36.864z m-73.728 0h53.248v36.864c0 14.336-12.288 26.624-26.624 26.624-14.336 0-26.624-12.288-26.624-26.624v-36.864z m422.912 275.456H173.056V655.36c7.168 5.12 16.384 8.192 26.624 8.192 15.36 0 28.672-7.168 36.864-18.432 9.216 11.264 21.504 18.432 36.864 18.432s28.672-7.168 36.864-18.432c8.192 11.264 21.504 18.432 36.864 18.432s28.672-7.168 36.864-18.432c9.216 11.264 21.504 18.432 36.864 18.432s28.672-7.168 36.864-18.432c8.192 11.264 21.504 18.432 36.864 18.432s28.672-7.168 36.864-18.432c8.192 11.264 21.504 18.432 36.864 18.432 10.24 0 19.456-3.072 26.624-8.192v199.68z m0-238.592c0 14.336-12.288 26.624-26.624 26.624-14.336 0-26.624-12.288-26.624-26.624v-36.864h53.248v36.864z" p-id="5619" fill="#d4237a"></path><path d="M439.296 742.4c-5.12 0-10.24 1.024-15.36 3.072 5.12-2.048 9.216-5.12 13.312-8.192 9.216-9.216 12.288-22.528 13.312-30.72 0-4.096-4.096-8.192-8.192-8.192-8.192 1.024-21.504 4.096-30.72 13.312-4.096 4.096-6.144 8.192-8.192 13.312 2.048-5.12 3.072-10.24 3.072-15.36 0-13.312-7.168-24.576-12.288-30.72-2.048-3.072-8.192-3.072-11.264 0-5.12 6.144-12.288 18.432-12.288 30.72 0 5.12 1.024 10.24 3.072 15.36-2.048-5.12-5.12-9.216-8.192-13.312-9.216-9.216-22.528-12.288-30.72-13.312-4.096 0-8.192 4.096-8.192 8.192 1.024 8.192 4.096 21.504 13.312 30.72 4.096 4.096 8.192 6.144 13.312 8.192-5.12-2.048-10.24-3.072-15.36-3.072-13.312 0-24.576 7.168-30.72 12.288-3.072 2.048-3.072 8.192 0 11.264 6.144 5.12 17.408 12.288 30.72 12.288 5.12 0 10.24-1.024 15.36-3.072-5.12 2.048-9.216 5.12-13.312 8.192-9.216 9.216-12.288 22.528-13.312 30.72 0 4.096 4.096 8.192 8.192 8.192 8.192-1.024 21.504-4.096 30.72-13.312 4.096-4.096 6.144-8.192 8.192-13.312-2.048 5.12-3.072 10.24-3.072 15.36 0 13.312 7.168 24.576 12.288 30.72 2.048 3.072 8.192 3.072 11.264 0 5.12-6.144 12.288-17.408 12.288-30.72 0-5.12-1.024-10.24-3.072-15.36 2.048 5.12 5.12 9.216 8.192 13.312 9.216 9.216 22.528 12.288 30.72 13.312 4.096 0 8.192-4.096 8.192-8.192-1.024-8.192-4.096-21.504-13.312-30.72-4.096-4.096-8.192-6.144-13.312-8.192 5.12 2.048 10.24 3.072 15.36 3.072 13.312 0 24.576-7.168 30.72-12.288 3.072-2.048 3.072-8.192 0-11.264-6.144-5.12-17.408-12.288-30.72-12.288zM389.12 781.312c-11.264 0-21.504-9.216-21.504-21.504s9.216-21.504 21.504-21.504c11.264 0 21.504 9.216 21.504 21.504s-10.24 21.504-21.504 21.504zM545.792 110.592c-1.024 1.024-2.048 3.072-3.072 4.096-24.576 41.984-6.144 101.376 1.024 121.856 21.504-4.096 81.92-18.432 106.496-60.416 24.576-41.984 6.144-101.376-1.024-121.856-12.288 2.048-35.84 7.168-58.368 18.432 0 0-1.024 0-2.048 1.024-16.384 9.216-31.744 20.48-43.008 36.864zM537.6 88.064c9.216-11.264 20.48-19.456 32.768-26.624-13.312-17.408-26.624-29.696-34.816-36.864-8.192 6.144-21.504 19.456-33.792 34.816 12.288 8.192 25.6 17.408 35.84 28.672z" p-id="5620" fill="#d4237a"></path><path d="M831.488 149.504c-25.6 7.168-61.44 10.24-106.496 9.216-15.36 0-30.72-1.024-46.08-2.048-2.048 10.24-6.144 20.48-11.264 29.696-34.816 60.416-125.952 71.68-129.024 71.68h-1.024-1.024c-4.096 0-94.208-11.264-129.024-71.68-5.12-8.192-8.192-17.408-10.24-26.624-93.184 34.816-145.408 102.4-159.744 123.904 43.008 39.936 204.8 52.224 265.216 53.248 217.088-1.024 303.104-134.144 328.704-187.392z" p-id="5621" fill="#d4237a"></path><path d="M521.216 235.52c-9.216-28.672-21.504-84.992 3.072-130.048-27.648-34.816-79.872-47.104-99.328-51.2-7.168 20.48-25.6 79.872-1.024 121.856 22.528 37.888 71.68 53.248 97.28 59.392z" p-id="5622" fill="#d4237a"></path></svg>